PathFileType	4	(X/Y/Z)	Patient4_TMGait_0pt8_01_left_26.trc.trc
DataRate	CameraRate	NumFrames	NumMarkers	Units	OrigDataRate	OrigDataStartFrame	OrigNumFrames
86.419753086420	86.419753086420	4	33	mm	86.419753086420	106	       141
Frame#	Time	Sacral			L.Shoulder			Chest			R.Shoulder			Neck			R.ASIS			L.ASIS			R.Thigh.Superior			R.Thigh.Lateral			R.Thigh.Inferior			R.Patella			L.Thigh.Superior			L.Thigh.Lateral			L.Thigh.Inferior			L.Patella			L.Shank.Superior			L.Shank.Lateral			L.Shank.Inferior			R.Shank.Superior			R.Shank.Lateral			R.Shank.Inferior			R.Heel			R.Midfoot.Superior			R.Midfoot.Lateral			R.Toe			L.Heel			L.Midfoot.Lateral			L.Midfoot.Superior			L.Toe			L.Elbow			L.Wrist			R.Elbow			R.Wrist			
		X1	Y1	Z1	X2	Y2	Z2	X3	Y3	Z3	X4	Y4	Z4	X5	Y5	Z5	X6	Y6	Z6	X7	Y7	Z7	X8	Y8	Z8	X9	Y9	Z9	X10	Y10	Z10	X11	Y11	Z11	X12	Y12	Z12	X13	Y13	Z13	X14	Y14	Z14	X15	Y15	Z15	X16	Y16	Z16	X17	Y17	Z17	X18	Y18	Z18	X19	Y19	Z19	X20	Y20	Z20	X21	Y21	Z21	X22	Y22	Z22	X23	Y23	Z23	X24	Y24	Z24	X25	Y25	Z25	X26	Y26	Z26	X27	Y27	Z27	X28	Y28	Z28	X29	Y29	Z29	X30	Y30	Z30	X31	Y31	Z31	X32	Y32	Z32	X33	Y33	Z33	

106	29.685000000000	867.374971077957	1009.968658934462	504.864817396996	1027.383327309703	1426.231444234005	297.100276129689	1146.658563759529	1362.167498148527	449.213234590317	1083.783125719755	1441.380959544156	629.493769280030	1030.303063619864	1493.961043987936	450.600650627498	1100.130783802461	941.018560249243	602.364647333873	1063.376658832766	962.563334557103	330.140572460954	1118.484571449765	732.300752384820	568.084232167138	1026.960739186648	632.838172864578	634.239114243033	1089.574059328511	572.206426297976	550.074520760851	1077.194416710155	484.902950074999	555.979552271928	1157.468729590660	798.025678029337	359.754348913425	1125.587142773941	666.684932193228	279.234649578047	1236.652623270571	615.993204484829	337.652547493009	1262.567763641268	533.983403674970	328.659238006022	1217.324558248038	457.539603028097	318.815651291893	1097.837690933778	369.987433322513	275.637345274566	1139.105481838800	242.159246070053	320.956406045755	1042.851334132791	398.542686562286	563.686794496995	962.961488532562	300.976707309381	624.416078720901	997.264521717436	203.350380403046	560.810390260435	852.843268561151	43.067876675879	527.406875276943	1023.084255548811	97.580233410988	571.493476551412	932.142783341637	37.190778015778	606.700247153642	1140.727443637105	42.954081875626	606.695595003457	991.794345129485	111.534831530165	368.519097040765	1052.476743018508	91.873130472114	280.498582332385	1149.659886438091	135.492708792465	293.931163775515	1257.394840252044	59.103481834363	251.622032582055	977.137245443944	1065.420860184401	218.374621705038	1054.926064453139	816.118605024080	214.580779086200	1136.370517708824	1100.408566834289	757.505671125232	1373.168959161395	1021.943506075427	698.620989891663	
107	29.696571428571	866.626377240388	1009.920049111537	505.425720664908	1026.528914492476	1425.770246021275	297.530123176112	1146.515201256610	1361.495887306466	448.975947934879	1084.911609560036	1441.043304049754	629.529924958538	1030.305278710572	1493.509149067313	451.043952675122	1099.558064326388	940.218499459586	601.784642765293	1061.835452214473	962.461541719398	329.552682253281	1114.815521225451	730.853155143584	567.365667230709	1022.207515563142	632.346124144920	634.109022095154	1083.551240307009	570.914297990760	549.837420287167	1070.043151000462	484.079226204083	555.813897113212	1155.751871154527	798.511416449424	359.177378504566	1124.132237116896	666.453493828942	279.131869403125	1235.110788912982	616.543124263845	337.860790785601	1262.509386504289	536.792201807994	329.167275762445	1221.944176752220	459.689474935818	319.318800282593	1109.902530005179	363.857416159311	274.803817926864	1159.819816379342	239.070432139830	321.054180504168	1035.261699405899	397.928654679810	563.560682548606	954.985786573609	300.827161657666	624.405186253563	988.587303531363	203.040343152469	560.775111504650	843.561859571405	43.032365991377	527.551286694245	1013.702173938649	97.447191005540	571.412091712668	922.813787236036	37.156885779327	606.744154471833	1131.412835052521	42.839139641600	606.780502483076	1022.245605307959	97.149838893218	367.138995319266	1085.464549877352	82.744245659256	279.924095502999	1178.785201433285	133.681386358987	294.460781810506	1292.729104905377	65.975671101513	253.563045402666	970.498517693542	1065.412908985620	220.890230992569	1030.927789605311	811.198962723560	218.793236380338	1149.368505204484	1102.340558105948	755.209312025402	1390.157395087751	1045.095252924792	690.706327236130	
108	29.708142857143	866.028658153853	1009.739178323805	505.772117465395	1025.878348281231	1425.234840528890	297.840764726054	1146.515035290013	1360.679373938666	448.640208234687	1086.143314943029	1440.562018555521	629.428234083684	1030.443650504832	1492.931197742013	451.388421443978	1099.060240884788	939.304833861549	601.088652163365	1060.542272065211	962.160402454679	328.828242000197	1111.262646709467	729.334662101499	566.783378824645	1017.454823294032	631.767967932454	633.935557168599	1077.673697440761	569.564560723064	549.672669795095	1063.044425429407	483.214717136070	555.682378253048	1153.870971387884	798.298335765977	358.558968137230	1122.437497798199	665.804838223660	278.790522749307	1232.935387689408	616.241074933949	338.303316084637	1261.730985466905	538.979068341731	329.963897037339	1225.851973420456	461.579259294064	320.042935174911	1122.052259452993	358.069298379216	273.578084970411	1179.916707171960	236.934199714850	321.251498430207	1027.784703024845	397.294303175004	563.434095591674	947.090461389439	300.685843934162	624.384357252330	979.960923189800	202.726646038376	560.736527363887	834.283374980146	43.019193977967	527.693719438906	1004.328683655716	97.293439586749	571.315049910223	913.491035771046	37.133315318936	606.786125561681	1122.110688026656	42.697592740592	606.869771733028	1052.375221296302	84.907203899771	365.076559010870	1118.357103468286	75.378393917958	279.303205961195	1207.270408523541	133.118702991205	295.444005089240	1326.762706912629	73.999413838242	257.222777101131	963.411177785359	1065.723890433007	222.771551577198	1007.925497526319	808.238398016973	222.755632552372	1162.345711076890	1104.653193107433	752.628259918936	1405.137943910716	1068.550362622710	682.799532865690	
109	29.719714285714	865.587908739423	1009.426960074648	505.901009165553	1025.423723216316	1424.635676598601	298.024565085500	1146.650424111193	1359.730620876727	448.200264352387	1087.453673663756	1439.936196479749	629.181824787514	1030.712007747105	1492.234000644282	451.625600605955	1098.647404569054	938.284369023494	600.287334010226	1059.506027321897	961.661710020505	327.987375740499	1107.852284408814	727.751255071252	566.344597796848	1012.725662990699	631.117465999907	633.717371390510	1071.961519318100	568.166792470168	549.573485067883	1056.220039728067	482.307129671047	555.577214756068	1151.884294373412	797.444598521336	357.939926621479	1120.631854284846	664.814249189933	278.184896254429	1230.293198165753	615.204733539759	338.934683691712	1260.390871867288	540.597908576979	330.990009288798	1229.114611518622	463.239410163996	320.904700203342	1134.084179203185	352.799001796893	272.069735406735	1199.108673940913	235.784319857474	321.544923337677	1020.445771302792	396.647670368522	563.309011336306	939.282960351639	300.559635588905	624.350717239416	971.395475254921	202.413482496080	560.695952404335	825.007695006101	43.039271329647	527.827008870859	994.970281196039	97.125455969665	571.209785348749	904.176340046237	37.123437650612	606.825451705393	1112.818260420953	42.527992302138	606.964841814930	1081.652498041734	74.932063332771	362.569490920567	1150.543849097377	69.846056229924	278.755297202631	1234.671138452103	133.785467434279	296.829908957610	1359.004844702648	82.984448203374	262.336424273006	955.917520711779	1066.394213396189	224.013669332654	986.180794597094	806.978683363951	226.444512951803	1175.233118127856	1107.323930006967	749.801268652996	1418.119435673228	1092.007479153288	674.987162509980	
